<svg width="25" height="24" viewBox="0 0 25 24" fill="none" xmlns="http://www.w3.org/2000/svg">
<path d="M17.59 4.55996C16.89 3.52996 16.09 2.56996 15.19 1.70996C14.84 1.36996 14.25 1.68996 14.35 2.16996C14.54 3.10996 14.74 4.34996 14.74 5.45996C14.74 7.51996 13.39 9.18996 11.33 9.18996C9.79 9.18996 8.53 8.25996 7.98 6.92996C7.88 6.72996 7.84 6.60996 7.78 6.38996C7.67 5.96996 7.12 5.83996 6.88 6.20996C6.7 6.47996 6.53 6.74996 6.37 7.03996C5.18 9.07996 4.5 11.46 4.5 14C4.5 18.42 8.08 22 12.5 22C16.92 22 20.5 18.42 20.5 14C20.5 10.51 19.42 7.26996 17.59 4.55996ZM12.21 19C10.43 19 8.99 17.6 8.99 15.86C8.99 14.24 10.04 13.1 11.8 12.74C13.27 12.44 14.78 11.81 15.83 10.82C16.11 10.56 16.57 10.68 16.65 11.05C16.88 12.07 17 13.13 17 14.2C17.01 16.85 14.86 19 12.21 19Z" fill="black" fill-opacity="0.54"/>
</svg>
