<svg version="1.2" xmlns="http://www.w3.org/2000/svg" viewBox="0 0 1453 100" width="1453" height="100">
	<title>1</title>
	<defs>
		<clipPath clipPathUnits="userSpaceOnUse" id="cp1">
			<path d="m1214 44.44c0-7.98 6.46-14.44 14.44-14.44h8.17c7.97 0 14.43 6.46 14.43 14.44v8.22c0 7.98-6.46 14.44-14.43 14.44h-8.17c-7.98 0-14.44-6.46-14.44-14.44z"/>
		</clipPath>
	</defs>
	<style>
		.s0 { fill: #006848;stroke: #ffffff;stroke-miterlimit:100;stroke-width: .4 } 
		.s1 { fill: #8f9194;stroke: #ffffff;stroke-miterlimit:100;stroke-width: .4 } 
		.s2 { fill: #8f9194 } 
		.s3 { fill: #c1c2c4 } 
		.s4 { fill: #636366 } 
		.s5 { fill: none;stroke: #8f9194;stroke-width: 1.2 } 
		.s6 { fill: #fffffe } 
		.s7 { fill: #f79e1b } 
		.s8 { opacity: .9;fill: #8f9194 } 
		.s9 { opacity: 1;fill: #ffffff } 
	</style>
	<path id="Object 2" fill-rule="evenodd" class="s0" d="m-974.4 718.5h1961.2c22.6 3.3 45.6 2.7 68.3 5.5 167.1 16.1 329.2 79.9 463.1 181.1 120.5 90.4 218.7 210.4 282.9 346.7 61.5 129.8 91.6 274.3 87.4 417.8 186-0.1 371.9 0 557.9 0 36.1 0.3 72.2-1 108.2 1.2 152 7.5 301.9 53.4 432.2 132.2 195.2 116.9 346 306.5 413.6 523.9 46.3 146.9 55.1 305.2 25.1 456.2q-768.7 0-1537.4 0c-97.4-0.7-195.1 3.3-292-8.3-153.7-17.5-303.9-65.8-439-141.2-266.2-147.3-471.9-400.6-558.7-692.4-12.4-43.4-21.8-87.6-29.4-132.1-129.7-0.1-259.5 0.4-389.2-0.2-156.4-1.7-312.4-34.3-455.9-96.8-182.9-79.1-344.7-206.1-465.6-364.5-106.4-139.8-184-303.2-215-476.7-8.9-47.1-14.4-94.7-17.7-142.5zm1026 365.7q0 180.2 0 360.4 57.3 0 114.6 0c0-70.7 0.1-141.3-0.1-211.9 1.8-0.3 5.3-1 7.1-1.3 22.2 70.9 43.9 142 65.6 213.1 27.5 0.2 54.9 0 82.4 0.1 22.2-71.3 43.7-142.9 66.2-214.1 1.3 0.8 4.2 2.4 5.5 3.2 1.1 70.3-0.3 140.7 0.8 211.1 38.4-0.5 76.8-0.1 115.2-0.2 0-120.1 0-240.3 0-360.4-38.9 0-77.8-0.2-116.7 0.1-27.8 0.3-53.9 20.3-61 47.2-14.7 51-29.5 101.9-44 152.9-2.1 4.6-1.8 12.1-7.8 13.7-4.1-3.1-4.6-8.7-6.2-13.2-14.6-51.1-29.3-102.1-44.2-153.1-7.3-27.2-33.7-47.6-61.9-47.6-38.5-0.2-77 0-115.5 0zm505.3 360.4q57.8 0 115.5 0c0-120.1 0-240.3 0-360.4-38.5-0.1-77 0-115.5 0-0.1 120.1-0.1 240.3 0 360.4zm153.7-360.4c1.8 78.5 71.5 146.5 149.4 149.6 74.4 0.7 148.8 0.3 223.2 0.2 3.3-21.6 2.1-44.1-5.3-64.8-16.2-48.2-63.8-83.7-114.8-84.9-84.2-0.3-168.4-0.1-252.5-0.1zm7.7 170.8q0 94.8 0 189.5c38.5 0.1 77.1 0.1 115.6 0.1 0-35.4 0-70.9 0-106.3 15.8 0 31.5 0 47.3 0 21.7 35.4 43.5 70.9 65.3 106.3 44-0.1 88 0.1 132-0.1-25.6-38.6-51.2-77-76.9-115.4 35-12.9 65.5-39.2 79.8-74-121.1-0.2-242.1-0.1-363.1-0.1zm1169 439.6c-2.1 38.4-7.2 76.5-13.8 114.4-426.2 0.4-852.5 0.1-1278.8 0.1 24.9 159.1 90.1 310.2 180.5 442.8 90 131.5 207.2 244.1 342.1 328.7 142.4 89.7 304.7 147.4 471.7 168.1 92.2 12 185.4 9 278.1 9.4 512.4 0.1 1024.8-0.1 1537.2 0.1 27.2-150.7 13.2-308.2-37.7-452.5-70.1-200.5-213.2-374-395.7-482.5-133.9-80.7-289-125.1-445.3-128.5-212.7-0.2-425.5 0-638.3-0.1zm-518.8 347.9q13.4 0 26.7 0c56.3 121.5 112.3 243.1 168.7 364.5q-15.6 0.1-31 0.1c-15.2-33.7-30.7-67.3-45.7-101-70.6-0.1-141.2 0-211.7-0.1-15.6 33.6-30.7 67.5-46.1 101.1q-14.7-0.1-29.2-0.1c55.9-121.5 112.5-242.8 168.3-364.5zm-81.4 238.5c62.8 0.1 125.6 0 188.3 0-31.5-68.8-62.6-137.8-94-206.7-31.3 68.9-63 137.7-94.3 206.7zm1484.3-221.8q13 0 26 0 0 42.2 0 84.3c30.9 0.1 61.8 0 92.8 0q-0.1 12 0 24c-31 0-61.9 0-92.8 0 0.1 57.3 0 114.7 0.1 172 0 16.5 7.7 34.3 23.2 41.9 21.8 10.2 47.2 5.9 68.4-3.9q-0.1 12.6 0.1 25.4c-30.1 12.7-68.3 13.9-95-7.1-15.5-12.4-22.5-32.6-22.8-52-0.1-58.8 0-117.6 0-176.3-12.9 0-25.7 0-38.5 0q-0.1-12 0-24 19.2 0 38.5 0 0-42.1 0-84.3zm-1153.5 130.5c33.3-45.2 96-64 148.9-46.1 24.5 7.6 44.8 24.1 62.8 41.8-6.2 7-12.4 14-19.1 20.6-21.8-24-51.3-44.3-84.9-43.9-36.4-1.7-72 18.7-90.7 49.6-26 41-23 97.9 7.1 136 20.6 26.6 54.3 42.8 88.1 40.7 32.8-0.9 61.9-20.2 83.2-43.9q9.1 7.9 18.3 16.2c-22.9 28.1-56.1 49.1-92.8 52-43.2 5.2-88.3-12.2-116.4-45.5-43-48.3-44.7-127-4.5-177.5zm280.8-10.3c41.3-46 115.8-56 167.9-22.8 13.2 8.1 24.7 18.6 35.6 29.5q-9.6 9.7-19.3 19.3c-22-22.2-49.5-42.5-82.1-43.2-39.7-3.1-79 20.3-97.1 55.4-26.3 47-15.8 111.9 26.2 146.3 29.7 25.8 74.6 32.3 110.1 15.2 17.6-7.9 32.3-20.6 45.5-34.4 6.2 5.3 12.3 10.7 18.5 16.1-23.8 28.2-57.4 49.9-94.9 52.1-49.1 5.6-99.2-18.9-125.6-60.5-35.2-52.3-28.3-127.5 15.2-173zm285.3-15.7c42.7-35.7 111.3-36 153 1.5 33.7 30 45.8 77.3 43.7 121-72.9 0.1-145.8 0-218.8 0 2.9 41 27.5 82.1 67.6 96 44 16.8 95.3-0.2 125.5-35.2 6.2 5.5 12.5 11.1 18.7 16.7-23.3 25.1-54 45-88.7 48.5-38.5 5.7-79.6-5.6-108.1-32.5-60-55.8-56.5-164.2 7.1-216zm24.7 13.2c-28.2 18.9-43.3 52.4-46.8 85.4 63.5 0 127.1-0.1 190.6 0.1-2.8-29.7-13.1-60.4-36.1-80.4-29.3-25.8-76-27.4-107.7-5.1zm258.5 23.6c20.7-31.8 53.1-58.3 91.9-62.5 53.8-7.6 109.6 24.3 131.3 73.9 22.2 49.4 16.9 111.7-17.5 154.3-30 38-82.7 55.9-129.6 43.4-31.9-7.9-57.9-30.6-76.1-57.3q0 68.5 0 137.1c-8.7 0-17.4-0.1-26 0q0-173 0-345.9c8.6 0 17.3 0 26 0 0 19 0.1 38 0 57zm76.9-33.8c-15.7 4.5-29.9 13.1-42 23.9-39.9 35.9-47.7 100.6-19.4 145.8 18.2 30.7 52.8 51.1 88.6 51.8 37.4 1.1 74.6-20.1 90.9-54 22.3-46.1 16.6-107.5-20.9-144.1-25.2-24.3-63.7-34.3-97.2-23.4z"/>
	<path id="Object 2" fill-rule="evenodd" class="s1" d="m810 24h49.3c0.6 0.1 1.2 0.1 1.8 0.1 4.2 0.4 8.3 2 11.6 4.6 3.1 2.3 5.5 5.3 7.1 8.7 1.6 3.3 2.3 6.9 2.2 10.5q7.1 0 14.1 0c0.9 0 1.8 0 2.7 0.1 3.8 0.2 7.6 1.3 10.9 3.3 4.9 2.9 8.7 7.7 10.4 13.2 1.1 3.7 1.4 7.7 0.6 11.5q-19.3-0.1-38.7 0c-2.4-0.1-4.9 0-7.3-0.3-3.9-0.4-7.7-1.6-11.1-3.5-6.7-3.7-11.8-10.1-14-17.4q-0.5-1.7-0.8-3.4-4.9 0-9.8 0c-3.9 0-7.8-0.8-11.4-2.4-4.6-2-8.7-5.2-11.7-9.2-2.7-3.5-4.7-7.6-5.5-12q-0.3-1.7-0.4-3.6zm25.8 9.3q0 4.5 0 9 1.5 0 2.9 0 0-2.6 0-5.3c0 0 0.1 0 0.2 0q0.8 2.6 1.6 5.3 1.1 0 2.1 0 0.8-2.7 1.7-5.4c0 0.1 0.1 0.1 0.1 0.1 0 1.8 0 3.6 0 5.3q1.5 0 2.9 0 0-4.5 0-9.1-1.4 0-2.9 0.1c-0.7 0-1.4 0.5-1.5 1.1q-0.6 2-1.2 3.9c0 0.1 0 0.3-0.1 0.3-0.2 0-0.2-0.2-0.2-0.3q-0.6-1.9-1.1-3.9c-0.2-0.6-0.9-1.1-1.6-1.1q-1.4-0.1-2.9 0zm12.7 9q1.5 0 2.9 0 0-4.5 0-9.1-1.4 0-2.9 0 0 4.6 0 9.1zm3.9-9c0 1.9 1.8 3.6 3.8 3.7q2.8 0 5.6 0c0.1-0.5 0-1.1-0.2-1.6-0.4-1.2-1.6-2.1-2.8-2.1q-3.2-0.1-6.4 0zm0.2 4.2q0 2.4 0 4.8 1.4 0 2.9 0 0-1.3 0-2.7 0.6 0 1.2 0 0.8 1.4 1.6 2.7 1.7 0 3.4 0-1-1.4-2-2.9c0.9-0.3 1.7-1 2-1.8q-4.5-0.1-9.1-0.1zm29.4 11.1q-0.1 1.5-0.3 2.9-16.1 0-32.2 0c0.6 4 2.2 7.8 4.5 11.1 2.3 3.3 5.2 6.2 8.6 8.3 3.6 2.3 7.7 3.7 11.9 4.2 2.3 0.3 4.7 0.3 7 0.3q19.3 0 38.7 0c0.7-3.8 0.3-7.8-1-11.4-1.7-5.1-5.3-9.4-9.9-12.2-3.4-2-7.3-3.1-11.2-3.2q-8.1 0-16.1 0zm-13 8.8q0.3 0 0.6 0 2.1 4.5 4.3 9.1-0.4 0-0.8 0-0.6-1.2-1.2-2.5-2.6 0-5.3 0-0.6 1.3-1.1 2.5-0.4 0-0.8 0 2.1-4.5 4.3-9.1zm-2.1 6q2.4 0 4.7 0-1.1-2.6-2.3-5.2-1.2 2.6-2.4 5.2zm37.4-5.6q0.3 0 0.6 0 0 1 0 2.1 1.2 0 2.3 0 0 0.3 0 0.6-1.1 0-2.3 0 0 2.2 0 4.3c0 0.5 0.2 0.9 0.6 1.1 0.5 0.2 1.2 0.1 1.7-0.1q0 0.3 0 0.6c-0.7 0.4-1.7 0.4-2.4-0.1-0.4-0.4-0.5-0.9-0.5-1.4q0-2.2 0-4.4-0.5 0-1 0 0-0.3 0-0.6 0.5 0 1 0 0-1.1 0-2.1zm-29.1 3.3c0.9-1.2 2.4-1.6 3.8-1.2 0.6 0.2 1.1 0.6 1.6 1.1q-0.3 0.2-0.5 0.5c-0.6-0.6-1.3-1.1-2.2-1.1-0.9-0.1-1.8 0.4-2.2 1.2-0.7 1.1-0.6 2.5 0.1 3.4 0.6 0.7 1.4 1.1 2.3 1.1 0.8-0.1 1.5-0.5 2-1.1q0.3 0.2 0.5 0.4c-0.6 0.7-1.4 1.2-2.3 1.3-1.1 0.1-2.2-0.3-3-1.2-1-1.2-1.1-3.2-0.1-4.4zm7.1-0.3c1-1.1 2.9-1.4 4.2-0.6q0.5 0.4 0.9 0.8-0.2 0.2-0.5 0.5c-0.5-0.6-1.2-1.1-2-1.1-1-0.1-2 0.5-2.5 1.4-0.6 1.2-0.4 2.8 0.7 3.7 0.7 0.6 1.9 0.8 2.8 0.3 0.4-0.2 0.8-0.5 1.1-0.8q0.2 0.2 0.5 0.4c-0.6 0.7-1.5 1.2-2.4 1.3-1.3 0.1-2.5-0.5-3.2-1.5-0.9-1.4-0.7-3.2 0.4-4.4zm7.2-0.4c1-0.9 2.8-0.9 3.8 0.1 0.9 0.7 1.2 1.9 1.1 3q-2.7 0-5.5 0c0.1 1 0.7 2.1 1.7 2.4 1.1 0.4 2.4 0 3.2-0.9q0.2 0.2 0.4 0.4c-0.5 0.7-1.3 1.2-2.2 1.3-1 0.1-2-0.2-2.7-0.9-1.5-1.4-1.4-4.1 0.2-5.4zm0.6 0.3c-0.7 0.5-1.1 1.4-1.2 2.2q2.4 0 4.8 0c-0.1-0.8-0.3-1.5-0.9-2-0.7-0.7-1.9-0.7-2.7-0.2zm6.5 0.6c0.5-0.8 1.3-1.4 2.3-1.5 1.4-0.2 2.8 0.6 3.3 1.8 0.6 1.3 0.4 2.8-0.4 3.9-0.8 1-2.1 1.4-3.3 1.1-0.8-0.2-1.4-0.8-1.9-1.4q0 1.7 0 3.4-0.3 0-0.7 0 0-4.3 0-8.7 0.4 0 0.7 0 0 0.7 0 1.4zm1.9-0.8q-0.6 0.2-1 0.6c-1 0.9-1.2 2.5-0.5 3.7 0.4 0.7 1.3 1.2 2.2 1.3 1 0 1.9-0.5 2.3-1.4 0.6-1.2 0.4-2.7-0.5-3.6-0.7-0.6-1.6-0.9-2.5-0.6z"/>
	<path id="Layer" fill-rule="evenodd" class="s2" d="m970.1 63.7c-6.2 0-11.5-5.4-11.5-12.6l9.3-10c7.9-0.5 13.3 5.3 13.3 11.4q0 1.5-0.3 2.9h-15.9c1 1.7 2.8 2.9 5 2.9h8.3v5.4zm-5-14h10.1c-1-1.8-2.9-3-5.1-3-2.2 0-4.1 1.2-5 3z"/>
	<path id="Layer" fill-rule="evenodd" class="s2" d="m941.6 43.4c1-0.8 3.2-1.7 5.6-1.7 6.1 0 11.1 5 11.1 11.2 0 6.2-5 11.2-11.1 11.2-6.2 0-11.2-5-11.2-11.2v-16.1h5.6zm11.3 9.5c0-3.2-2.6-5.8-5.7-5.8-3.2 0-5.8 2.6-5.8 5.8 0 3.2 2.6 5.7 5.8 5.7 3.1 0 5.7-2.5 5.7-5.7z"/>
	<path id="Layer" fill-rule="evenodd" class="s2" d="m1062.9 36.8v19.4l-9.3 7.9c-8.4 0-13-5-13-11.2 0-6.2 5-11.2 11.2-11.2 2.3 0 4.5 0.9 5.5 1.7v-6.6zm-5.4 16.1c0-3.2-2.5-5.8-5.7-5.8-3.2 0-5.8 2.6-5.8 5.8 0 3.2 2.6 5.8 5.8 5.8 3.2 0 5.7-2.6 5.7-5.8z"/>
	<path id="Layer" fill-rule="evenodd" class="s2" d="m990 68.7h-5.6l-0.1-15.7v-0.5c0-6.1 5-11.1 11.2-11.1 6.2 0 11.2 5 11.2 11.1 0 6.2-5 11.2-11.2 11.2-2.3 0-4.5-0.9-5.5-1.7zm11.2-16.1c0-3.2-2.5-5.8-5.7-5.8-3.2 0-5.8 2.6-5.8 5.8 0 3.2 2.6 5.8 5.8 5.8 3.2 0 5.7-2.6 5.7-5.8z"/>
	<path id="Layer" fill-rule="evenodd" class="s2" d="m1024 58.4l-5.6 5.6c-6.2 0-11.3-5.1-11.3-11.3 0-6.3 5.1-11.4 11.3-11.4 6.3 0 11.3 5.1 11.3 11.4v11h-5.7zm0.3-5.6c0-3.3-2.6-5.9-5.9-5.9-3.2 0-5.8 2.6-5.8 5.9 0 3.2 2.6 5.8 5.8 5.8 3.3 0 5.9-2.6 5.9-5.8z"/>
	<path id="Layer" class="s2" d="m1032.4 46.9h5.6v16.8h-5.6z"/>
	<path id="Layer" class="s3" d="m1032.4 36.8h5.6v5.5h-5.6z"/>
	<g id="surface1">
		<g id="Layer">
			<g id="Layer">
				<path id="Layer" fill-rule="evenodd" class="s4" d="m463.7 85.6c0 2.7-2 4.7-4.8 4.7-2.7 0-4.9-1.8-4.9-5.2v-1.7c0-3.3 1.6-5.7 4.6-6.2l4.3-0.6v1.8l-3.9 0.4c-1.8 0.4-2.9 1.6-3 3.9 0.7-1.3 2-1.7 3.2-1.7 2.6 0 4.5 1.9 4.5 4.6zm-2 0c0-1.7-1.2-2.9-2.8-2.9-1.7 0-2.9 1.2-2.9 2.9 0 1.6 1.2 2.8 2.9 2.8 1.6 0 2.8-1.2 2.8-2.8z"/>
				<path id="Layer" fill-rule="evenodd" class="s4" d="m467 86.1c0.1 1.5 1.3 2.5 2.8 2.5 1.1 0 1.9-0.5 2.3-1.1h2c-0.6 1.6-2.2 2.8-4.3 2.8-2.8 0-4.9-1.9-4.9-4.8 0-2.8 2-4.9 4.7-4.9 2.6 0 4.5 1.7 4.8 4.7q0 0.4 0 0.8zm5.3-1.5c0-1.4-1.1-2.3-2.6-2.3-1.5 0-2.6 0.9-2.7 2.3z"/>
				<path id="Layer" class="s4" d="m475.1 88.3c0.7 0 1.5-0.4 1.5-1.9v-5.6h7.3v9.3h-2.1v-7.5h-3.3v3.8c0 2.6-1.5 3.8-3.4 3.7z"/>
				<path id="Layer" class="s4" d="m489.4 85.1l4.4-4.3h-2.3l-2.5 2.4-1.4 1.3v-3.7h-1.9-0.1v9.3h0.1 1.9v-4.4l1.4 1.6 2.5 2.8h2.4z"/>
				<path id="Layer" fill-rule="evenodd" class="s4" d="m503.8 80.8v9.3h-2.1v-1.4c-0.8 1-2.2 1.6-3.4 1.6q0 0-0.1 0c-1.4 0-2.5-0.5-3.2-1.3q-0.1-0.1-0.1-0.1-0.1-0.1-0.1-0.1-1.2-1.4-1.2-3.3 0 0 0-0.1c0-1.3 0.4-2.5 1.2-3.3q0-0.1 0.1-0.1 0 0 0.1-0.1c0.7-0.8 1.8-1.3 3.2-1.3q0.1 0 0.1 0c1.2 0 2.6 0.6 3.4 1.6l0.2-1.4zm-2 4.6c0-1.6-1.3-2.9-3-2.9-1.8 0-3 1.2-3 2.9 0 1.8 1.2 3 3 3 1.7 0 3-1.3 3-3z"/>
				<path id="Layer" fill-rule="evenodd" class="s4" d="m507.3 80.8l0.3 1.4c0.8-1 2.1-1.6 3.4-1.6q0.1 0 0.1 0c1.3 0 2.4 0.5 3.2 1.3q0.1 0.1 0.1 0.1 0 0 0.1 0.1c0.7 0.8 1.2 2 1.2 3.3q0 0.1 0 0.1c0 1.3-0.5 2.4-1.2 3.3q-0.1 0-0.1 0.1 0 0-0.1 0.1c-0.8 0.8-1.9 1.3-3.2 1.3q0 0-0.1 0c-1.3 0-2.6-0.6-3.4-1.6v5.6h-2.1v-13.5zm3.2 7.6c1.8 0 3.1-1.2 3.1-3 0-1.7-1.3-2.9-3.1-2.9-1.7 0-2.9 1.3-2.9 2.9 0 1.7 1.2 3 2.9 3z"/>
				<path id="Layer" class="s4" d="m531 84.3v5.8h-2v-5.3c0-1.7-0.9-2.4-2.1-2.4-1.1 0-2 0.8-2 2.4v5.3h-2.1v-5.3c0-1.7-0.9-2.4-2-2.4-1.2 0-2.1 0.8-2.1 2.4v5.3h-2v-9.3h1.8l0.2 1.3c0.5-0.9 1.4-1.5 2.8-1.5 1.3 0 2.3 0.5 2.8 1.5 0.7-0.9 1.7-1.5 3.2-1.5 2.1 0 3.5 1.4 3.5 3.7z"/>
			</g>
			<g id="Layer">
				<path id="Layer" class="s2" d="m489.3 57l-9.7 9.6c-0.7 0.6-0.7 1.4-0.4 2 0.2 0.5 0.8 1.1 1.7 1.1l17.1 0.1c1.3 0 2.4-1.1 2.4-2.4q0-0.1 0-0.2c0.1-3.7-1.4-7.4-4.1-10.1-1.9-2-5-2-7-0.1z"/>
				<path id="Layer" class="s2" d="m478.1 49.8l-13.6-0.2c-0.9 0-1.5 0.6-1.7 1.2-0.2 0.5-0.3 1.3 0.4 2l12.1 12.1c0.9 1 2.4 1 3.4 0.1q0-0.1 0.1-0.2c2.7-2.6 4.2-6.3 4.3-10 0-2.8-2.2-5-5-5z"/>
				<path id="Layer" class="s2" d="m465 47.8q0.1 0 0.2 0c3.7 0.1 7.4-1.4 10.1-4.1 2-1.9 2-5 0.1-7l-9.6-9.7c-0.6-0.7-1.4-0.7-2-0.4-0.5 0.2-1.1 0.8-1.1 1.7l-0.1 17.1c0 1.3 1.1 2.4 2.4 2.4z"/>
				<path id="Layer" class="s2" d="m467.6 26.2c2.6 2.7 6.3 4.2 10 4.3 2.8 0 5-2.2 5-5l0.2-13.6c0-0.9-0.6-1.5-1.2-1.7-0.5-0.2-1.3-0.3-2 0.4l-12.1 12.1c-1 0.9-1 2.4-0.1 3.4q0.1 0 0.2 0.1z"/>
				<path id="Layer" class="s2" d="m495.7 22.8l9.7-9.6c0.7-0.6 0.7-1.4 0.4-2-0.2-0.5-0.8-1.1-1.7-1.1l-17.1-0.1c-1.3 0-2.4 1.1-2.4 2.4q0 0.1 0 0.2c-0.1 3.7 1.4 7.4 4.1 10.1 1.9 2 5 2 7 0.1z"/>
				<path id="Layer" class="s2" d="m506.9 30l13.6 0.2c0.9 0 1.5-0.6 1.7-1.2 0.2-0.5 0.3-1.3-0.4-2l-12.1-12.1c-0.9-1-2.4-1-3.4-0.1q0 0.1-0.1 0.2c-2.7 2.6-4.2 6.3-4.3 10 0 2.8 2.2 5 5 5z"/>
				<path id="Layer" class="s2" d="m520 32q-0.1 0-0.2 0c-3.7-0.1-7.4 1.4-10.1 4.1-2 1.9-2 5-0.1 7l9.6 9.7c0.6 0.7 1.4 0.7 2 0.4 0.5-0.2 1.1-0.8 1.1-1.7l0.1-17.1c0-1.3-1.1-2.4-2.4-2.4z"/>
				<path id="Layer" class="s2" d="m517.4 53.6c-2.6-2.7-6.3-4.2-10-4.3-2.8 0-5 2.2-5 5l-0.2 13.6c0 0.9 0.6 1.5 1.2 1.7 0.5 0.2 1.3 0.3 2-0.4l12.1-12.1c1-0.9 1-2.4 0.1-3.4q-0.1 0-0.2-0.1z"/>
			</g>
		</g>
		<g id="Layer">
			<g id="Layer">
				<g id="Layer">
					<g id="Layer">
						<path id="Layer" class="s4" d="m577.6 64.2c-1.5-1.6-4-1.6-5.5-0.1l-7.7 7.6c-0.5 0.5-0.5 1.1-0.3 1.6 0.2 0.4 0.6 0.9 1.3 0.9h13.5c1.1 0 2-0.8 2-1.9q0-0.1 0-0.1c0-3-1.2-5.9-3.3-8z"/>
					</g>
					<g id="Layer">
						<path id="Layer" class="s4" d="m567.1 62.3c0.1-2.1-1.7-3.9-3.8-3.9l-10.8-0.1c-0.7 0-1.2 0.4-1.3 0.9-0.2 0.4-0.2 1.1 0.3 1.6l9.5 9.5c0.7 0.8 1.9 0.8 2.7 0.1q0-0.1 0.1-0.1c2.1-2.1 3.3-5 3.3-8z"/>
					</g>
					<g id="Layer">
						<path id="Layer" class="s4" d="m561 53.6c1.6-1.5 1.6-4 0.1-5.5l-7.5-7.7c-0.6-0.5-1.2-0.5-1.6-0.3-0.5 0.2-0.9 0.6-1 1.3v13.6c0 1 0.8 1.9 1.9 1.9q0.1 0 0.1 0c3 0 5.9-1.2 8-3.3z"/>
					</g>
					<g id="Layer">
						<path id="Layer" class="s4" d="m571.6 37c1.5 1.6 4 1.6 5.5 0.1l7.7-7.5c0.5-0.6 0.5-1.2 0.3-1.6-0.2-0.5-0.6-0.9-1.3-1h-13.5c-1.1 0-2 0.8-2 1.9q0 0.1 0 0.1c0 3 1.2 5.9 3.3 8z"/>
					</g>
					<g id="Layer">
						<path id="Layer" class="s4" d="m582.1 38.9c-0.1 2.1 1.7 3.9 3.8 3.9l10.8 0.1c0.7 0 1.2-0.4 1.3-0.9 0.2-0.4 0.2-1-0.3-1.5l-9.5-9.7c-0.7-0.7-1.9-0.7-2.7 0q0 0.1-0.1 0.1c-2.1 2.1-3.3 5-3.3 8z"/>
					</g>
					<g id="Layer">
						<path id="Layer" class="s4" d="m588.2 47.6c-1.6 1.5-1.6 4-0.1 5.5l7.6 7.7c0.5 0.5 1.1 0.5 1.6 0.3 0.4-0.1 0.9-0.6 0.9-1.3v-13.5c0-1.1-0.8-1.9-1.9-2q-0.1 0-0.1 0c-3 0-5.9 1.2-8 3.3z"/>
					</g>
					<g id="Layer">
						<path id="Layer" class="s4" d="m586.3 58.1c-2.1-0.1-3.9 1.7-3.9 3.8l-0.1 10.8c0 0.7 0.4 1.2 0.9 1.3 0.4 0.2 1.1 0.2 1.6-0.3l9.5-9.5c0.8-0.7 0.8-1.9 0.1-2.7q-0.1 0-0.1-0.1c-2.1-2.1-5-3.3-8-3.3z"/>
					</g>
				</g>
			</g>
			<path id="Layer" fill-rule="evenodd" class="s4" d="m567.6 36.7v2c0 1.7-1.4 3.1-3.1 3.1h-1.1c-0.2 0-0.3-0.1-0.4-0.3l-0.4-3.1q0-0.2 0.1-0.2c0.3-0.3 0.6-0.7 0.6-1.2 0-0.8-0.7-1.4-1.5-1.3-0.6 0.1-1.1 0.6-1.1 1.2-0.1 0.5 0.2 1 0.6 1.3q0.1 0 0.1 0.2l-0.5 3.1c0 0.2-0.2 0.3-0.4 0.3h-1c-1.7 0-3.1-1.4-3.1-3.1v-2c0-1.3 0.8-2.5 2-2.9v-0.9c0-2 1.6-3.6 3.6-3.6 2 0.1 3.6 1.7 3.6 3.7v0.8c1.1 0.4 1.9 1.5 2 2.9zm-2.8-3.7c0-1.6-1.2-2.9-2.8-2.9-1.5 0-2.8 1.3-2.8 2.8v0.7q0.1 0 0.3 0c0.1 0 5.2 0 5.3 0z"/>
		</g>
		<g id="Layer">
			<g id="Layer">
				<path id="Layer" fill-rule="evenodd" class="s4" d="m619.3 38.7c0 2.2-1.6 3.7-3.8 3.7-2.1 0-3.9-1.4-3.9-4v-1.4c0-2.5 1.3-4.4 3.6-4.9l3.4-0.4v1.4l-3.1 0.4c-1.4 0.3-2.2 1.2-2.3 3 0.5-1 1.6-1.3 2.5-1.3 2.1 0 3.6 1.4 3.6 3.5zm-1.6 0c0-1.3-0.9-2.2-2.2-2.2-1.3 0-2.3 0.9-2.3 2.2 0 1.4 1 2.3 2.3 2.3 1.3 0 2.2-0.9 2.2-2.3z"/>
				<path id="Layer" fill-rule="evenodd" class="s4" d="m621.8 39.2c0 0.2 0.4 0.8 0.9 1.5q-0.1-0.1-0.3-0.2c0.2 0.3 0.5 0.6 0.8 0.9 0.3 0.5 0.6 0.9 0.7 1-2.1 0-3.7-1.5-3.7-3.8 0-2.1 1.5-3.8 3.7-3.8 2 0 3.5 1.3 3.7 3.7q0 0.3 0 0.7zm1.4 2.2q-0.2-0.3-0.5-0.7c0.4 0.3 0.8 0.4 1.3 0.4 0.9 0 1.5-0.4 1.8-0.9h1.6c-0.4 1.3-1.7 2.2-3.4 2.2 0 0-0.4-0.5-0.8-1zm-1.1-1.2q0.1 0.2 0.3 0.3c-0.1-0.2-0.3-0.3-0.3-0.3zm3.9-2.3c0-1-0.9-1.8-2.1-1.8-1.1 0-2 0.8-2.1 1.8z"/>
				<path id="Layer" class="s4" d="m628.2 40.9c0.5 0 1.1-0.3 1.1-1.5v-4.4h5.7v7.3h-1.6v-5.9h-2.5v3c0 2.1-1.2 3-2.8 2.9z"/>
				<path id="Layer" class="s4" d="m639.4 38.4l3.5-3.4h-1.9l-1.9 1.9-1.1 1v-2.9h-1.5-0.1v7.3h0.1 1.5v-3.4l1.1 1.2 1.9 2.2h1.9z"/>
				<path id="Layer" fill-rule="evenodd" class="s4" d="m650.7 35v7.3h-1.7v-1.1c-0.6 0.8-1.7 1.2-2.6 1.2q0 0-0.1 0c-1.1 0-1.9-0.3-2.5-1q-0.1 0-0.1-0.1-0.1 0-0.1 0-0.9-1-0.9-2.7c0-1 0.3-1.9 0.9-2.6q0 0 0.1-0.1 0 0 0.1-0.1c0.6-0.6 1.4-1 2.5-1q0.1 0 0.1 0c0.9 0 2 0.5 2.6 1.3l0.2-1.1zm-1.6 3.6c0-1.3-1-2.3-2.3-2.3-1.4 0-2.4 1-2.4 2.3 0 1.4 1 2.4 2.4 2.4 1.3 0 2.3-1 2.3-2.4z"/>
				<path id="Layer" fill-rule="evenodd" class="s4" d="m653.5 35l0.1 1.1c0.7-0.8 1.7-1.3 2.7-1.3q0 0 0.1 0c1.1 0 1.9 0.4 2.5 1q0.1 0.1 0.1 0.1 0 0.1 0.1 0.1c0.6 0.7 0.9 1.6 0.9 2.6q0 1.7-0.9 2.7-0.1 0-0.1 0 0 0.1-0.1 0.1c-0.6 0.6-1.4 1-2.5 1q-0.1 0-0.1 0c-1 0-2-0.4-2.7-1.2v4.4h-1.6v-10.6zm2.6 6c1.4 0 2.3-1 2.3-2.4 0-1.3-0.9-2.3-2.3-2.3-1.4 0-2.4 1-2.4 2.3 0 1.4 1 2.4 2.4 2.4z"/>
				<path id="Layer" class="s4" d="m672 37.7v4.6h-1.6v-4.2c0-1.3-0.7-1.9-1.6-1.9-0.9 0-1.6 0.7-1.6 1.9v4.2h-1.6v-4.2c0-1.3-0.7-1.9-1.6-1.9-0.9 0-1.6 0.7-1.6 1.9v4.2h-1.6v-7.3h1.4l0.2 1c0.4-0.7 1.1-1.2 2.2-1.2 1 0 1.8 0.5 2.2 1.2 0.5-0.7 1.3-1.2 2.5-1.2 1.6 0 2.7 1.1 2.7 2.9z"/>
			</g>
			<g id="Layer">
				<path id="Layer" class="s4" d="m617.2 47.8h1.3v7.2h-1.5v-4.8l-3.9 4.8h-1.3v-7.2h1.5v4.8z"/>
				<path id="Layer" class="s4" d="m624.8 47.8h1.4v7.2h-1.4v-2.6h-3.6v2.6h-1.4v-7.2h1.4v3.1h3.6z"/>
				<path id="Layer" class="s4" d="m669.2 55v-5.9h-2.3v-1.3h6.1v1.3h-2.3v5.9z"/>
				<path id="Layer" fill-rule="evenodd" class="s4" d="m635.4 51.9c0.1 1.1 1 1.9 2.2 1.9 0.8 0 1.4-0.3 1.7-0.8h1.6c-0.5 1.2-1.8 2.1-3.4 2.1-2.1 0-3.7-1.5-3.7-3.7 0-2.1 1.5-3.7 3.6-3.7 2 0 3.5 1.3 3.7 3.6q0 0.3 0 0.6zm4.1-1.2c-0.1-1-0.9-1.7-2.1-1.7-1.1 0-2 0.7-2 1.7z"/>
				<path id="Layer" fill-rule="evenodd" class="s4" d="m660.7 51.9c0.1 1.1 1 1.9 2.2 1.9 0.8 0 1.4-0.3 1.8-0.8h1.5c-0.4 1.2-1.7 2.1-3.3 2.1-2.2 0-3.8-1.5-3.8-3.7 0-2.1 1.6-3.7 3.7-3.7 2 0 3.4 1.3 3.6 3.6q0 0.3 0 0.6zm4.1-1.2c0-1-0.8-1.7-2-1.7-1.1 0-2 0.7-2.1 1.7z"/>
				<path id="Layer" class="s4" d="m656.5 47.8h1.4v7.2h-1.4v-2.6h-3.6v2.6h-1.4v-7.2h1.4v3.1h3.6z"/>
				<path id="Layer" class="s4" d="m629.6 55v-5.9h-2.3v-1.3h6.1v1.3h-2.2v5.9z"/>
				<path id="Layer" fill-rule="evenodd" class="s4" d="m643.8 47.7l0.2 1.1c0.6-0.8 1.7-1.2 2.6-1.2q0 0 0.1 0c1.1 0 1.9 0.4 2.5 1q0 0 0.1 0.1c0.6 0.7 0.9 1.6 0.9 2.6 0 1.1-0.3 2-0.9 2.6q0 0 0 0.1-0.1 0-0.1 0.1c-0.6 0.6-1.5 0.9-2.5 0.9q-0.1 0-0.1 0c-0.9 0-2-0.4-2.6-1.2v4.3h-1.6v-10.4zm2.5 5.9c1.4 0 2.3-0.9 2.3-2.3 0-1.3-0.9-2.3-2.3-2.3-1.3 0-2.3 1-2.3 2.3 0 1.3 1 2.3 2.3 2.3z"/>
				<g id="Layer">
					<path id="Layer" class="s4" d="m618.4 60.6v7.2h-1.6v-5.9h-3.3v5.9h-1.7v-7.2z"/>
					<path id="Layer" fill-rule="evenodd" class="s4" d="m657.4 62.9c1.7 0 2.8 0.9 2.8 2.4 0 1.6-1.1 2.5-2.8 2.5h-2.9v-7.2h1.4v2.3zm-0.2 3.5c0.9 0 1.6-0.3 1.6-1.1 0-0.7-0.7-1.1-1.6-1.1h-1.4v2.2z"/>
					<path id="Layer" fill-rule="evenodd" class="s4" d="m626 60.7h1.4v7.1h-1.6v-1.1c-0.6 0.8-1.6 1.2-2.6 1.2q-0.1 0-0.1 0c-1 0-1.9-0.4-2.4-1q-0.1 0-0.1 0-0.1-0.1-0.1-0.1c-0.6-0.7-0.9-1.5-0.9-2.6 0-1 0.3-1.9 0.9-2.6q0 0 0.1 0 0 0 0.1-0.1c0.6-0.6 1.4-1 2.4-1q0 0 0.1 0c1 0 2 0.5 2.6 1.2zm-0.2 3.5c0-1.3-0.9-2.2-2.3-2.2-1.3 0-2.3 0.9-2.3 2.2 0 1.4 1 2.3 2.3 2.3 1.3 0 2.3-1 2.3-2.3z"/>
					<path id="Layer" fill-rule="evenodd" class="s4" d="m630.4 60.6l0.2 1c0.6-0.7 1.7-1.2 2.6-1.2q0.1 0 0.1 0c1 0 1.9 0.4 2.5 1q0 0 0 0.1 0.1 0 0.1 0.1c0.6 0.6 0.9 1.5 0.9 2.5v0.1c0 1-0.3 1.9-0.9 2.5q0 0.1-0.1 0.1 0 0 0 0.1c-0.6 0.6-1.5 1-2.5 1q0 0-0.1 0c-0.9 0-2-0.5-2.6-1.2v4.2h-1.6v-10.3zm2.5 5.8c1.3 0 2.3-0.9 2.3-2.3 0-1.3-1-2.2-2.3-2.2-1.4 0-2.3 0.9-2.3 2.2 0 1.3 1 2.3 2.3 2.3z"/>
					<path id="Layer" class="s4" d="m646.3 66.5c0.5-0.1 1.1-0.4 1.1-1.5v-4.4h5.7v7.3h-1.6v-5.9h-2.6v3c0 2-1.1 2.9-2.7 2.9z"/>
					<path id="Layer" fill-rule="evenodd" class="s4" d="m645.4 64.2c0 2.2-1.6 3.7-3.8 3.7-2.2 0-3.8-1.6-3.8-3.7 0-2.1 1.6-3.7 3.8-3.7 2.2 0 3.8 1.6 3.8 3.7zm-1.6 0c0-1.3-0.9-2.3-2.2-2.3-1.3 0-2.3 1-2.3 2.3 0 1.3 1 2.3 2.3 2.3 1.3 0 2.2-1 2.2-2.3z"/>
				</g>
			</g>
		</g>
		<path id="Layer" fill-rule="evenodd" class="s2" d="m1384.4 50.8v8.1h-2.6v-19.9h6.8q2.6 0 4.4 1.7 1.8 1.7 1.8 4.2 0 2.5-1.8 4.2-1.8 1.7-4.4 1.7zm0-9.4v7h4.3q1.5 0 2.5-1.1 1-1 1-2.4 0-1.4-1-2.4-1-1.1-2.5-1.1zm16.4 3.4q2.8 0 4.5 1.5 1.6 1.5 1.6 4.2v8.4h-2.5v-1.9h-0.1q-1.6 2.3-4.2 2.3-2.3 0-3.8-1.3-1.5-1.3-1.5-3.3 0-2.2 1.6-3.4 1.6-1.3 4.3-1.3 2.3 0 3.7 0.9v-0.6q0-1.3-1-2.3c-0.7-0.6-1.6-0.9-2.5-0.9q-2.1 0-3.4 1.8l-2.3-1.4q1.9-2.7 5.6-2.7zm-3.4 9.9q0 1 0.9 1.7 0.8 0.7 2 0.7 1.6 0 2.9-1.2 1.2-1.2 1.2-2.9-1.2-0.9-3.3-0.9-1.6 0-2.6 0.8-1.1 0.7-1.1 1.8zm23.6-9.4l-8.6 19.6h-2.6l3.1-6.9-5.6-12.7h2.8l4.1 9.8 4-9.8z"/>
		<path id="Layer" class="s2" d="m1370.6 57.5h-3.7v-2.9c1.2-0.8 2-2 2.3-3.4h-6.2v-4.4h10.8q0.2 1.1 0.2 2.3c0 3.5-1.3 6.4-3.4 8.4z"/>
		<path id="Layer" class="s2" d="m1352.7 54v-3h3.8c0.9 2.7 3.5 4.7 6.5 4.7 1.5 0 2.9-0.4 3.9-1.1l3.7 2.9c-1.9 1.8-4.5 2.8-7.6 2.8-4.4 0-8.3-2.5-10.3-6.3z"/>
		<path id="Layer" class="s2" d="m1352.7 54c-0.7-1.6-1.2-3.3-1.2-5.2q0-2.7 1.2-5.1h3.8v2.9c-0.4 1.5-0.4 3 0 4.4z"/>
		<path id="Layer" class="s2" d="m1356.5 46.6l-3.8-2.9c2-3.9 5.9-6.3 10.3-6.3 3.1 0 5.7 1.1 7.6 3l-3.2 3.2c-1.2-1.1-2.7-1.7-4.4-1.7-3 0-5.6 2-6.5 4.7z"/>
		<path id="Layer" fill-rule="evenodd" class="s5" d="m1361.6 24.4h50.5c14 0 25.3 11.4 25.3 25.3 0 14-11.3 25.3-25.3 25.3h-50.5c-13.9 0-25.3-11.3-25.3-25.3 0-13.9 11.4-25.3 25.3-25.3z"/>
		<g id="samsung">
			<path id="Layer" fill-rule="evenodd" class="s2" d="m1157.6 55.3h3.4l-8.4 20.6h-3.3l3-7.2-5.8-13.4h3.5l3.9 9.5z"/>
			<path id="Layer" fill-rule="evenodd" class="s2" d="m1137.4 55c1.9 0 3.5 0.8 4.5 2v-1.7h3.3v14.1h-3.3v-1.8c-1 1.3-2.7 2.1-4.5 2.1-3.4 0-7-2.7-7-7.3 0-4.7 3.5-7.4 7-7.4zm0.5 3c-2.4 0-4.3 1.9-4.3 4.3 0 2.5 1.9 4.4 4.3 4.4 2.4 0 4.2-1.9 4.2-4.4 0-2.4-1.8-4.3-4.2-4.3z"/>
			<path id="Layer" fill-rule="evenodd" class="s2" d="m1123.2 51.8c3.7 0 6.4 2.8 6.4 6.3 0 3.5-2.7 6.3-6.4 6.3h-2.7v5h-3.3v-17.6zm-0.2 3h-2.5v6.5h2.5c1.9 0 3.2-1.4 3.2-3.2 0-1.8-1.3-3.3-3.2-3.3z"/>
			<path id="Layer" fill-rule="evenodd" class="s2" d="m1196.6 31.9v4.5c0 0.3-0.1 0.5-0.1 1-0.3 3-2.9 4.1-5.8 4.1-2.9 0-5.5-1.1-5.8-4.1 0-0.5 0-0.7 0-1v-7c0-0.3 0-0.8 0-1 0.4-3.1 2.9-4.1 5.8-4.1 2.9 0 5.5 1 5.8 4.1 0 0.5 0 1 0 1v0.6h-4.1v-0.9c0 0 0-0.4-0.1-0.7 0-0.3-0.4-1.2-1.6-1.2-1.2 0-1.6 0.8-1.6 1.2-0.1 0.2-0.1 0.5-0.1 0.8v7.5c0 0.2 0 0.5 0 0.7 0.1 0.4 0.5 1.2 1.7 1.2 1.2 0 1.6-0.8 1.7-1.2q0-0.3 0-0.7v-2.4h-1.7v-2.4z"/>
			<path id="Layer" fill-rule="evenodd" class="s2" d="m1176.5 24.7h4.1v16.3h-5.9l-4-13.3h-0.1l0.2 13.3h-4v-16.3h6.1l3.7 12.9h0.1z"/>
			<path id="Layer" fill-rule="evenodd" class="s2" d="m1162.2 36.5c0 0.3-0.1 0.9-0.1 1.1-0.3 3.1-2.7 4.1-5.7 4.1-3 0-5.4-1-5.7-4.1-0.1-0.2-0.1-0.8-0.1-1.1v-11.8h4.2v12.2c0 0.2 0 0.5 0 0.6 0.1 0.4 0.5 1.2 1.6 1.2 1.1 0 1.5-0.8 1.6-1.2 0-0.1 0-0.4 0-0.6v-12.2h4.2z"/>
			<path id="Layer" fill-rule="evenodd" class="s2" d="m1146.7 35.4c0.1 0.3 0.2 1.2 0 2.6-0.4 2.7-2.8 3.7-5.8 3.7-3 0-5.9-1.1-5.9-4.7v-1.2h4.4v1.5c0 0.9 0.6 1.5 1.6 1.5 1.1 0 1.5-0.5 1.6-1.1 0.1-0.3 0.2-0.8 0-1.2-0.8-2.1-6.6-3.1-7.3-6.4-0.2-0.8-0.2-1.5-0.1-2.2 0.5-2.6 2.8-3.6 5.7-3.6 2.3 0 5.5 0.6 5.5 4.1v1.1h-4.1v-1c0-0.8-0.5-1.4-1.5-1.4-1 0-1.3 0.5-1.5 1.1 0 0.1 0 0.5 0.1 0.8 0.4 1.9 6.6 2.9 7.3 6.4z"/>
			<path id="Layer" fill-rule="evenodd" class="s2" d="m1130.7 24.7l0.3 16.5h-4.1l-0.1-14.8h-0.1l-2.7 14.8h-4.2l-2.8-14.8h-0.1l-0.1 14.8h-4.1l0.4-16.5h6.7l2 12.6h0.1l2-12.6z"/>
			<path id="Layer" fill-rule="evenodd" class="s2" d="m1100.5 41.2h-4.5l3.1-16.5h7.3l3 16.5h-4.4l-2.2-14.9h-0.1z"/>
			<path id="Layer" fill-rule="evenodd" class="s2" d="m1081.5 37.1v-1.3h4.4v1.6c0 0.9 0.6 1.5 1.7 1.5 1.1 0 1.4-0.6 1.6-1.1 0-0.3 0.1-0.9-0.1-1.3-0.8-2.1-6.7-3.1-7.4-6.4-0.1-0.9-0.1-1.5 0-2.2 0.4-2.7 2.8-3.7 5.7-3.7 2.4 0 5.6 0.6 5.6 4.2v1.1h-4.1v-1c0-0.9-0.6-1.5-1.5-1.5-1.1 0-1.4 0.6-1.6 1.1 0 0.2 0 0.5 0.1 0.9 0.4 1.9 6.7 2.9 7.4 6.4 0 0.3 0.2 1.2 0 2.7-0.4 2.7-2.9 3.7-5.8 3.7-3.1 0-6-1.1-6-4.7z"/>
		</g>
		<path id="Layer" fill-rule="evenodd" class="s2" d="m694.4 34.9c1 0 4-0.2 5.2 4q1.3 4.3 4.1 14.2h0.8q3-10.4 4.1-14.2c1.3-4.3 4.4-4 5.7-4h9.9v30.7h-10.1v-18.1h-0.6l-5.6 18.1h-7.6l-5.6-18.1h-0.6v18.1h-10.1v-30.7zm44.2 0v18.1h0.8l6.8-14.8c1.3-3 4.1-3.3 4.1-3.3h9.7v30.7h-10.2v-18.1h-0.8l-6.7 14.9c-1.3 2.9-4.2 3.2-4.2 3.2h-9.8v-30.7zm56.9 14.6c-1.4 4.1-5.9 7-10.9 7h-10.7v9.1h-9.8v-16.1z"/>
		<path id="Layer" fill-rule="evenodd" class="s2" d="m796.1 47.6h-20.1c-6.1 0-12-5.8-12.5-12.7h21.5c8.3 0 12.2 7 11.1 12.7z"/>
		<path id="Layer" class="s2" d="m50.6 31.2l-15.7 37.5h-10.2l-7.7-29.9c-0.1-0.7-0.3-1.4-0.7-2-0.4-0.6-1-1-1.6-1.3-3-1.5-6.2-2.5-9.5-3.2l0.2-1.1h16.5c1.1 0 2.1 0.4 2.9 1.1 0.8 0.7 1.4 1.7 1.5 2.7l4.1 21.7 10.1-25.5z"/>
		<path id="Layer" class="s2" d="m64.5 31.2l-8 37.4h-9.7l8-37.4z"/>
		<path id="Layer" class="s2" d="m77.2 41.6c-0.1 4.5 13.5 5 13.5 14.9 0 7.7-6.6 12.8-16.8 12.8-3.7 0-7.4-0.7-10.8-2l1.8-8.2c3 1.6 6.4 2.4 9.9 2.3 2.8 0 5.8-1.1 5.8-3.6 0.1-1.7-1.4-2.9-5-4.7-3.7-1.8-8.5-4.8-8.5-10.2 0.1-7.3 6.8-12.4 16.4-12.4 3.1 0 6.1 0.6 9 1.7l-1.7 7.9c-3-1.4-6.3-2-9.5-1.7-2.9 0.4-4.1 1.8-4.1 3.2z"/>
		<path id="Layer" fill-rule="evenodd" class="s2" d="m117.1 31.2l7.9 37.5h-8.9l-1.2-5.6h-12.4l-2 5.6h-10.2l14.4-34.8c0.4-0.8 0.9-1.5 1.7-2 0.7-0.4 1.6-0.7 2.5-0.7zm-3.9 24.2l-2.9-14.1-5.1 14.1z"/>
		<path id="Layer" fill-rule="evenodd" class="s2" d="m137.9 45.3h68.6v34.3h-68.6z"/>
		<path id="Layer" fill-rule="evenodd" class="s2" d="m170.7 20.6l-3.3 15.4h-4l3.3-15.4zm20.7 13.1h-5.1l-0.8 2.3h-4.2l6-14.3c0.3-0.6 0.9-1.1 1.7-1.1h3.4l3.2 15.4h-3.7zm-0.6-3.1l-1.3-5.8-2.1 5.8zm-16.1 5.7c-1.8-0.1-3.5-0.4-4.5-0.9l0.8-3.3c0.9 0.4 2 1 4 0.9 1.2 0 2.4-0.4 2.4-1.5 0-0.6-0.5-1.1-2-1.9-1.6-0.7-3.6-2-3.5-4.2 0-3 2.8-5.1 6.7-5.1 1.5 0 2.8 0.4 3.7 0.7l-0.7 3.3c-1.8-0.8-3.3-0.8-3.9-0.7-1.2 0.1-1.7 0.7-1.7 1.3 0 1.8 5.6 2 5.6 6.1 0 3.2-2.8 5.3-6.9 5.3zm-9.6-15.7l-6.5 15.4h-4.2l-3.1-12.3c-0.2-0.7-0.4-1-1-1.3-1-0.6-2.5-1-3.9-1.3l0.1-0.5h6.7c0.9 0 1.7 0.6 1.9 1.6l1.7 8.9 4.1-10.5z"/>
		<path id="Layer" fill-rule="evenodd" class="s6" d="m153.9 64.3c0.4 0.3 1.1 0.5 1.8 0.5 0.9 0 1.5-0.4 1.5-1.1 0-0.5-0.4-0.9-1.4-1.2-1.3-0.5-2.1-1.2-2.1-2.3 0-1.3 1-2.2 2.7-2.2 0.9 0 1.5 0.2 1.9 0.3l-0.4 1.2c-0.2-0.1-0.8-0.4-1.5-0.4-0.9 0-1.3 0.5-1.3 1 0 0.6 0.5 0.8 1.5 1.2 1.3 0.6 2 1.2 2 2.3 0 1.3-0.9 2.4-2.9 2.4-0.9 0-1.7-0.3-2.2-0.5z"/>
		<path id="Layer" fill-rule="evenodd" class="s6" d="m164.1 62.4h-2.9v2.3h3.3v1.2h-4.7v-7.8h4.5v1.1h-3.1v2.1h2.9z"/>
		<path id="Layer" fill-rule="evenodd" class="s6" d="m171.2 65.6c-0.4 0.2-1.1 0.4-2.1 0.4-2.4 0-3.9-1.6-3.9-3.9 0-2.6 1.8-4.1 4.1-4.1 1 0 1.6 0.2 1.9 0.3l-0.3 1.1c-0.3-0.1-0.9-0.3-1.5-0.3-1.6 0-2.7 1-2.7 2.9 0 1.7 1 2.8 2.7 2.8 0.5 0 1.2-0.1 1.5-0.3z"/>
		<path id="Layer" fill-rule="evenodd" class="s6" d="m173.7 58.1v4.5c0 1.5 0.6 2.2 1.6 2.2 1 0 1.6-0.7 1.6-2.2v-4.5h1.4v4.4c0 2.4-1.2 3.5-3.1 3.5-1.8 0-3-1-3-3.5v-4.4z"/>
		<path id="Layer" fill-rule="evenodd" class="s6" d="m179.8 58.2c0.6-0.1 1.4-0.2 2.2-0.2 1.1 0 1.8 0.2 2.4 0.6 0.4 0.4 0.6 0.9 0.6 1.6 0 1-0.6 1.7-1.4 2 0.6 0.2 0.9 0.7 1.1 1.5 0.3 1 0.5 1.9 0.6 2.2h-1.4c-0.2-0.3-0.3-0.9-0.6-1.9-0.2-1-0.5-1.3-1.3-1.3h-0.8v3.2h-1.4zm1.4 3.4h0.9c0.9 0 1.5-0.5 1.5-1.3 0-0.8-0.6-1.2-1.5-1.2q-0.7 0-0.9 0z"/>
		<path id="Layer" fill-rule="evenodd" class="s6" d="m190.6 62.4h-2.9v2.3h3.3v1.2h-4.7v-7.8h4.5v1.1h-3.1v2.1h2.9z"/>
		<path id="Layer" class="s2" d="m286.8 74.1h-26.4v-47.4h26.4z"/>
		<path id="Layer" class="s4" d="m265.2 63.6c2 4.1 4.9 7.6 8.4 10.5-4.4 3.5-9.7 5.6-15.4 6.2-5.6 0.6-11.3-0.4-16.3-2.8-5.1-2.5-9.4-6.4-12.4-11.1-3-4.8-4.6-10.4-4.6-16 0-5.6 1.6-11.2 4.6-16 3-4.7 7.3-8.6 12.4-11.1 5-2.4 10.7-3.4 16.3-2.8 5.7 0.6 11 2.7 15.4 6.2-3.5 2.9-6.4 6.4-8.4 10.5-2 4.1-3.1 8.6-3.1 13.2 0 4.6 1.1 9.1 3.1 13.2z"/>
		<path id="Layer" class="s3" d="m322.4 50.4c0 5.6-1.6 11.2-4.6 16-3 4.8-7.3 8.6-12.4 11.1-5.1 2.4-10.8 3.4-16.4 2.8-5.6-0.6-10.9-2.7-15.4-6.2 3.6-2.8 6.5-6.4 8.5-10.5 2-4.1 3-8.6 3-13.2 0-4.6-1-9.1-3-13.2-2-4.1-4.9-7.6-8.5-10.5 4.5-3.5 9.8-5.6 15.4-6.2 5.6-0.6 11.3 0.4 16.4 2.8 5.1 2.5 9.4 6.3 12.4 11.1 3 4.8 4.6 10.4 4.6 16z"/>
		<path id="Layer" fill-rule="evenodd" class="s2" d="m355.2 80h-1.3v-15h1.3zm9.5-15q1.7 0 3.4 0.5c0.9 0.3 1.8 0.8 2.5 1.5 0.7 0.7 1.3 1.5 1.6 2.4 0.8 2 0.8 4.2 0 6.2-0.3 0.9-0.9 1.7-1.6 2.4-0.7 0.6-1.6 1.2-2.5 1.5q-1.7 0.5-3.4 0.5h-5.5v-15zm-4.1 1.2v12.6h4.1q1.5 0 2.9-0.5 1.2-0.4 2.1-1.2 0.9-0.9 1.3-2c0.6-1.7 0.6-3.5 0-5.2-0.3-0.7-0.7-1.4-1.3-2q-0.9-0.8-2.1-1.2-1.4-0.5-2.9-0.5zm27.4-1.4q1 0 1.9 0.2 0.9 0.2 1.7 0.7 0.7 0.3 1.4 0.9 0.6 0.6 1.1 1.3l-1.1 0.7q-0.4-0.6-0.9-1-0.6-0.5-1.2-0.8-0.6-0.4-1.4-0.5-0.7-0.2-1.5-0.2-1.3 0-2.5 0.5-1.1 0.4-2 1.3-0.8 0.8-1.3 2c-0.6 1.7-0.6 3.5 0 5.2q0.5 1.2 1.3 2 0.9 0.9 2 1.3 1.2 0.5 2.5 0.5 0.8 0 1.5-0.2 0.7-0.1 1.4-0.5 0.6-0.3 1.2-0.8 0.5-0.4 0.9-1l1 0.7q-0.4 0.7-1.1 1.3-0.6 0.6-1.4 1-0.8 0.4-1.6 0.6c-1.7 0.3-3.4 0.2-4.9-0.4-0.9-0.4-1.7-0.9-2.4-1.6q-1.1-1-1.7-2.4c-0.7-2-0.7-4.2 0-6.2q0.6-1.4 1.7-2.4c0.7-0.7 1.5-1.2 2.4-1.6q1.5-0.6 3-0.6zm10.1 6.9q0.3-0.5 0.7-0.9 0.4-0.4 0.9-0.6 0.4-0.2 0.9-0.3 0.5-0.1 1.1-0.1 0.8-0.1 1.7 0.2 0.7 0.3 1.3 0.8 0.6 0.6 0.9 1.3 0.3 0.8 0.3 1.7v6.2h-1.2v-5.8q0-0.7-0.2-1.4-0.2-0.6-0.7-1-0.4-0.5-1-0.7-0.7-0.2-1.4-0.2-0.6 0-1.3 0.3-0.6 0.2-1 0.6-0.5 0.5-0.8 1.1-0.2 0.6-0.2 1.4v5.7h-1.2v-15.4h1.2zm15-1.9q1 0 1.9 0.3 0.8 0.4 1.5 1.1 0.6 0.7 1 1.6 0.3 1 0.3 2.1 0 0.1 0 0.3 0 0.1 0 0.2h-8.4q0 0.8 0.4 1.6 0.3 0.6 0.8 1.1 0.6 0.5 1.2 0.8 0.7 0.2 1.5 0.2 1 0 1.9-0.4 0.8-0.4 1.5-1l0.6 0.8q-0.4 0.5-1 0.8-0.4 0.3-1 0.5-0.5 0.2-1 0.3-0.6 0.1-1.1 0.1-1 0-2-0.4-0.9-0.4-1.6-1.1-0.7-0.7-1.1-1.6-0.4-1-0.3-2.1-0.1-1.1 0.3-2.1 0.4-1 1.1-1.7 0.7-0.7 1.6-1.1 0.9-0.3 1.9-0.3zm0 1q-0.7 0-1.4 0.3-0.6 0.3-1.1 0.7-0.5 0.5-0.8 1.1-0.3 0.7-0.4 1.5h7.2q-0.1-0.8-0.3-1.5-0.3-0.6-0.8-1.1-0.5-0.5-1.1-0.7-0.6-0.3-1.3-0.3zm11.7-1q1.1 0 2.1 0.4 1 0.4 1.7 1.1l-0.8 0.9q-0.6-0.6-1.4-1-0.7-0.3-1.6-0.3-0.8 0-1.5 0.3-0.7 0.3-1.2 0.9-0.6 0.5-0.9 1.2-0.6 1.7 0 3.3 0.3 0.7 0.8 1.3 0.6 0.5 1.3 0.8 0.7 0.3 1.5 0.3 0.9 0 1.7-0.3 0.7-0.4 1.3-0.9l0.8 0.8q-0.7 0.8-1.7 1.2c-1.3 0.5-2.8 0.5-4.1 0q-1-0.4-1.7-1.1-0.7-0.7-1-1.7c-0.5-1.3-0.5-2.8 0-4.1q0.3-0.9 1-1.7 0.7-0.7 1.7-1 1-0.5 2-0.4zm7.4 4.4h1.7l4.2-4.3h1.5l-4.8 4.8 4.9 5.3h-1.5l-4.3-4.7h-1.7v4.7h-1.2v-15.4h1.2z"/>
		<path id="Layer" class="s2" d="m376.6 42h-11v-19.8h11z"/>
		<path id="Layer" class="s4" d="m367.6 37.6c0.8 1.7 2 3.2 3.5 4.4-1.9 1.4-4.1 2.3-6.4 2.6-2.4 0.3-4.7-0.2-6.8-1.2-2.2-1-3.9-2.6-5.2-4.6-1.2-2-1.9-4.4-1.9-6.7 0-2.4 0.7-4.7 1.9-6.7 1.3-2 3-3.6 5.2-4.6 2.1-1.1 4.4-1.5 6.8-1.2 2.3 0.2 4.5 1.1 6.4 2.6-1.5 1.2-2.7 2.7-3.5 4.4-0.9 1.7-1.3 3.6-1.3 5.5 0 1.9 0.4 3.8 1.3 5.5z"/>
		<path id="Layer" class="s3" d="m391.4 32.1c0 2.3-0.7 4.7-1.9 6.7-1.3 2-3.1 3.6-5.2 4.6-2.1 1-4.5 1.5-6.8 1.2-2.3-0.3-4.6-1.2-6.4-2.6 1.5-1.2 2.7-2.7 3.5-4.4 0.8-1.7 1.3-3.6 1.3-5.5 0-1.9-0.5-3.8-1.3-5.5-0.8-1.7-2-3.2-3.5-4.4 1.8-1.5 4.1-2.4 6.4-2.6 2.3-0.3 4.7 0.1 6.8 1.2 2.1 1 3.9 2.6 5.2 4.6 1.2 2 1.9 4.3 1.9 6.7z"/>
		<path id="Layer" class="s7" d="m390.1 39.9v-0.4h-0.2v-0.1h0.4v0.1h-0.1v0.4zm0.8 0v-0.4l-0.2 0.3-0.2-0.3v0.4h-0.1v-0.5h0.2l0.1 0.3 0.1-0.3h0.2v0.5z"/>
	</g>
	<g id="япэй">
		<path id="Layer" class="s8" d="m1279.5 34.2v28h-4.9v-24.2h-8.7v24.2h-4.8v-28c0 0 18.4 0 18.4 0zm8.1 28.4q-3.2 0-4.9-1.3v-3.9q0.9 0.7 2 1 1.1 0.4 2.6 0.4 2.3 0 3.5-1.4 1.1-1.3 1.4-3.7h-7v-3.8h7q-0.7-4.6-4.8-4.6-1.2 0-2.5 0.4-1.2 0.4-1.9 0.9v-4.1q0.8-0.4 2.1-0.7 1.2-0.3 3.1-0.3 2.2 0 3.9 0.8 0.4 0.2 0.8 0.4 0.4 0.3 0.7 0.5 0.4 0.3 0.7 0.6 0.3 0.4 0.6 0.7 1.2 1.4 1.8 3.3 0.6 2 0.6 4.3 0 5.1-2.4 7.8-2.4 2.7-7.3 2.7zm21-23.3q-2.9 0-4.4-1.5-1.4-1.4-1.4-3.6h4q0 1.1 0.5 1.5 0.5 0.5 1.3 0.5 0.8 0 1.2-0.5 0.5-0.5 0.5-1.5h4q0 1.1-0.4 2-0.4 0.9-1.1 1.6-0.7 0.7-1.7 1.1-1.1 0.4-2.5 0.4zm-3.5 2.6v12.6l7.3-12.6h4.2v20.3h-4.6v-12.5l-7.3 12.5h-4.2v-20.3z"/>
		<g id="Clip-Path" clip-path="url(#cp1)">
			<g id="Layer">
				<path id="Layer" class="s8" d="m1232.5 67.1c-10.2 0-18.5-8.3-18.5-18.6 0-10.2 8.3-18.5 18.5-18.5 10.3 0 18.5 8.3 18.5 18.5 0 10.3-8.2 18.6-18.5 18.6z"/>
				<path id="Layer" class="s9" d="m1235.1 59.7h3.9v-22.3h-5.6c-5.7 0-8.7 3-8.7 7.2 0 3.5 1.7 5.5 4.6 7.6l-5.1 7.5h4.2l5.6-8.4-1.9-1.3c-2.4-1.6-3.5-2.9-3.5-5.6 0-2.4 1.6-4 4.8-4h1.7z"/>
			</g>
		</g>
	</g>
	<g id="erip">
		<path id="Layer" fill-rule="evenodd" class="s2" d="m1521.1 44.7q2.7 3.2 1.9 7.5h-13.4c0.6 2.2 2.4 3.5 4.8 3.5 2 0 3.4-0.8 4.3-2.4l3.7 1.7c-1.5 2.8-4.5 4.7-8.2 4.7-2.7 0-4.9-0.9-6.6-2.6q-2.7-2.6-2.7-6.5 0-3.9 2.6-6.5 2.7-2.6 6.6-2.6c2.9 0 5.2 1.1 7 3.2zm-11.4 4h8.8c-0.7-2-2.3-3.2-4.4-3.2-2.1 0-3.8 1.2-4.4 3.2z"/>
		<path id="Layer" fill-rule="evenodd" class="s2" d="m1541.6 44.1q2.4 2.6 2.4 6.5 0 3.9-2.4 6.5-2.4 2.6-6 2.6-3.3 0-5.5-2.4v8.8h-4.6v-24.2h4.6v2q2.2-2.4 5.5-2.4 3.6 0 6 2.6zm-6.9 11.4q2 0 3.3-1.4c0.8-0.9 1.3-2.1 1.3-3.5 0-1.4-0.5-2.6-1.3-3.5q-1.3-1.4-3.3-1.4-2 0-3.3 1.4-1.3 1.4-1.3 3.5c0 1.4 0.4 2.6 1.3 3.5q1.3 1.4 3.3 1.4z"/>
		<path id="Layer" class="s2" d="m1550.9 52.7l8.3-10.8h4.4v17.4h-4.5v-10.8l-8.4 10.8h-4.4v-17.4h4.6z"/>
		<path id="Layer" class="s2" d="m1571.9 59.3h-4.6v-17.4h16.7v17.4h-4.6v-13.4h-7.5z"/>
		<path id="Layer" class="s2" d="m1464.5 28l10.6 12.9-5.3 6.4-15.8-19.3z"/>
		<path id="Layer" class="s2" d="m1484 36.3l-3.7 4.6-10.5-12.9h9.1c0.9 0 1.8 0.4 2.4 1.1l2.7 3.4c0.9 1.1 1 2.7 0 3.8z"/>
		<path id="Layer" class="s2" d="m1497.2 52.5l-15.1 18.4c-0.5 0.7-1.4 1.1-2.3 1.1h-9.1l22.8-27.9 3.7 4.5c0.9 1.1 0.9 2.8 0 3.9z"/>
		<path id="Layer" class="s2" d="m1489.3 42.8l-23.9 29.2h-10.6l25.5-31.1 3.7-4.6c1-1.1 0.9-2.7 0-3.8l5.3 6.4c0.9 1.2 0.9 2.8 0 3.9z"/>
	</g>
</svg>